<svg width="195" height="195" viewBox="0 0 195 195" fill="none" xmlns="http://www.w3.org/2000/svg">
<path d="M104.36 149.666L87.4996 174L77.4317 146.066L50.751 158.649L55.9449 129.48L26.5338 126.951L45.5534 104.352L21.2747 87.2693L49.0334 77.2925L36.3805 50.3872L65.4893 55.6709L67.9211 26.0769L90.5372 45.2907L107.398 20.9566L117.466 48.8907L144.125 36.3582L138.931 65.5275L168.342 68.0563L149.323 90.6555L173.593 107.615L145.834 117.591L158.547 144.641L150.819 143.179C150.819 143.179 144.271 141.905 133.453 139.942L129.378 139.213L126.946 168.807L104.36 149.666Z" fill="#FF7DEE"/>
<path d="M58.6868 120.116C60.1945 119.661 61.6848 118.959 63.1364 118.06C64.2831 120.936 65.9779 122.778 67.3757 122.877C68.4453 122.901 68.6826 122.039 68.0836 120.591C65.6242 114.951 57.056 115.66 54.493 109.258C52.8759 105.347 53.0014 98.6788 55.7802 93.7101C58.5465 88.9162 62.5476 91.4145 65.8668 99.0305C64.6297 100.858 63.3627 102.613 62.1169 104.317C60.8679 101.399 59.5488 99.9522 58.7662 100.828C58.1196 101.52 58.0408 102.867 58.5798 104.171C60.1033 108.163 68.4634 105.207 74.2769 118.957C77.571 126.923 75.6697 131.655 70.4216 130.14C65.1136 128.48 60.5298 124.06 58.6868 120.116Z" fill="#EE0000"/>
<path d="M68.676 78.6536C72.5866 75.294 77.9941 80.4753 82.8867 91.3836C81.3177 93.4335 79.7998 95.5046 78.3031 97.5244C76.4551 93.1583 74.6295 89.4615 73.4462 90.2912C72.2118 91.0997 73.2972 95.5697 77.6095 105.998C81.9218 116.425 84.3914 120.449 85.8143 120.199C87.186 119.927 85.8497 115.773 84.0741 111.377C86.5802 111.696 89.1163 112.087 91.6225 112.405C95.8935 123.656 95.8378 131.313 90.627 131.734C84.359 131.956 77.3231 123.76 71.0729 108.749C64.8141 93.614 64.0126 82.9613 68.676 78.6536Z" fill="#EE0000"/>
<path d="M106.37 94.0362C114.067 112.647 115.121 124.425 109.339 126.948C103.445 129.306 95.8748 120.228 88.1485 101.545C80.4821 83.007 79.4187 71.1055 85.2526 68.6031C91.1551 66.3691 98.755 75.5192 106.37 94.0362ZM95.1494 98.6863C100.3 111.142 102.736 115.391 104.329 114.731C105.921 114.071 104.541 109.299 99.4418 96.8651C94.2697 84.4609 91.8763 80.1088 90.2837 80.7688C88.721 81.5012 89.9985 86.231 95.1494 98.6863Z" fill="#EE0000"/>
<path d="M128.646 113.348C127.835 112.411 126.848 110.742 125.877 108.6C124.555 105.712 123.213 102.875 121.891 99.9875C120.566 97.3981 119.875 96.7516 118.819 97.274C118.435 97.4752 118.125 97.6464 117.742 97.8476C120.287 104.003 122.832 110.158 125.378 116.313C123.527 117.886 121.543 119.345 119.551 120.679C112.005 102.43 104.458 84.1819 96.8817 65.8609C100.038 65.189 103.242 64.8367 106.485 64.6805C112.514 64.5993 117.44 69.6409 120.764 77.679C123.1 83.3274 122.839 87.7193 121.342 89.7392L121.402 89.884C123.17 89.957 125.218 91.5258 126.963 95.1289C128.357 97.9867 129.772 100.793 131.135 103.579C132.029 105.329 132.896 106.709 133.81 107.687C132.211 109.665 130.479 111.527 128.646 113.348ZM109.962 75.2422C109.498 75.3498 108.982 75.4362 108.518 75.5438C110.195 79.599 111.902 83.7267 113.579 87.7819C114.013 87.6019 114.499 87.4431 114.933 87.2631C116.505 86.6543 116.16 84.5915 114.492 80.6599C112.824 76.7283 111.653 74.9231 109.962 75.2422Z" fill="#EE0000"/>
<path d="M142.428 93.2574C140.382 98.0498 137.764 102.485 134.741 106.453L117.671 65.1759C122.611 65.8432 127.595 67.1285 132.426 69.0708C133.115 70.7364 133.833 72.4743 134.552 74.2123C132.374 73.9697 130.175 73.7783 127.912 73.7406L130.458 79.8958C132.191 79.4743 133.904 79.1039 135.544 78.7636L137.67 83.905C136.27 84.8247 134.767 85.702 133.243 86.6304L135.968 93.2202C137.542 91.5924 139.014 89.9222 140.332 88.1884C141.021 89.8539 141.761 91.5407 142.428 93.2574Z" fill="#EE0000"/>
</svg>
